<?xml version="1.0" encoding="UTF-8"?>
<svg xmlns="http://www.w3.org/2000/svg" version="1.1" viewBox="0 0 512 512">
  <defs>
    <style>
      .cls-1 {
        fill: #fff;
        fill-rule: evenodd;
      }
    </style>
  </defs>
  <!-- Generator: Adobe Illustrator 28.6.0, SVG Export Plug-In . SVG Version: 1.2.0 Build 709)  -->
  <g>
    <g id="Layer_1">
      <path class="cls-1" d="M239,402.7l-22.2-22.2c-6.7-6.7-17.5-6.6-24.2,0s-6.6,17.5,0,24.2l51.4,51.2c3.2,3.2,7.6,5,12.1,5s8.9-1.8,12.1-5l51.1-51.2c6.7-6.7,6.6-17.5,0-24.2-6.7-6.7-17.5-6.6-24.2,0l-22,22v-95.4c-.1-9.4-7.8-17.1-17.2-17.1-9.4,0-17.1,7.7-17.1,17.1v95.5ZM178.4,426.8l-3.9-3.9c-16.7-16.7-16.8-43.8,0-60.5,10.5-10.5,25.2-14.5,38.8-11.7v-43.4c0-23.6,19.1-42.8,42.7-42.9,23.6,0,42.8,19.1,42.9,42.8v43.5c13.6-2.7,28.2,1.2,38.7,11.7,16.7,16.7,16.8,43.8,0,60.5l-3.9,3.9h76.1c56.6,0,102.5-45.9,102.5-102.5s-55.8-94.5-86.6-100.3c.8-6.3,1.2-12.8,1.2-19.3,0-84.9-68.9-153.7-153.7-153.7s-134.6,51.3-150,119.9C54.7,173.5,0,229.8,0,298.8s57.4,128,128,128h50.4Z"/>
    </g>
  </g>
</svg>