<svg width="71" height="71" viewBox="0 0 71 71" fill="none" xmlns="http://www.w3.org/2000/svg">
<g clip-path="url(#clip0_2504_275)">
<path d="M35.9611 0H35.0391C34.2829 0 33.6699 0.612988 33.6699 1.36915V9.38843C33.6699 10.1446 34.2829 10.7576 35.0391 10.7576H35.9611C36.7173 10.7576 37.3303 10.1446 37.3303 9.38843V1.36915C37.3303 0.612988 36.7173 0 35.9611 0Z" fill="white" fill-opacity="0.5"/>
<path d="M35.9611 60.2424H35.0391C34.2829 60.2424 33.6699 60.8554 33.6699 61.6116V69.6309C33.6699 70.387 34.2829 71 35.0391 71H35.9611C36.7173 71 37.3303 70.387 37.3303 69.6309V61.6116C37.3303 60.8554 36.7173 60.2424 35.9611 60.2424Z" fill="white" fill-opacity="0.5"/>
<path d="M9.38843 33.6699H1.36915C0.612988 33.6699 0 34.2829 0 35.0391V35.9611C0 36.7173 0.612988 37.3303 1.36915 37.3303H9.38843C10.1446 37.3303 10.7576 36.7173 10.7576 35.9611V35.0391C10.7576 34.2829 10.1446 33.6699 9.38843 33.6699Z" fill="white" fill-opacity="0.5"/>
<path d="M69.6309 33.6699H61.6116C60.8554 33.6699 60.2424 34.2829 60.2424 35.0391V35.9611C60.2424 36.7173 60.8554 37.3303 61.6116 37.3303H69.6309C70.387 37.3303 71 36.7173 71 35.9611V35.0391C71 34.2829 70.387 33.6699 69.6309 33.6699Z" fill="white" fill-opacity="0.5"/>
<path d="M10.7205 10.0652L10.0685 10.7172C9.53379 11.2519 9.53379 12.1188 10.0685 12.6534L15.739 18.3239C16.2736 18.8586 17.1405 18.8586 17.6752 18.3239L18.3272 17.6719C18.8619 17.1372 18.8619 16.2703 18.3272 15.7357L12.6567 10.0652C12.1221 9.53048 11.2552 9.53048 10.7205 10.0652Z" fill="white" fill-opacity="0.5"/>
<path d="M53.3111 52.6762L52.659 53.3283C52.1244 53.8629 52.1244 54.7298 52.659 55.2645L58.3295 60.935C58.8642 61.4697 59.7311 61.4697 60.2658 60.935L60.9178 60.283C61.4525 59.7483 61.4525 58.8814 60.9178 58.3467L55.2473 52.6762C54.7126 52.1416 53.8457 52.1416 53.3111 52.6762Z" fill="white" fill-opacity="0.5"/>
<path d="M15.7565 52.6658L10.0861 58.3363C9.55137 58.871 9.55137 59.7379 10.0861 60.2726L10.7381 60.9246C11.2727 61.4593 12.1396 61.4593 12.6743 60.9246L18.3448 55.2541C18.8795 54.7194 18.8795 53.8525 18.3448 53.3178L17.6928 52.6658C17.1581 52.1311 16.2912 52.1311 15.7565 52.6658Z" fill="white" fill-opacity="0.5"/>
<path d="M58.3398 10.0752L52.6693 15.7457C52.1346 16.2804 52.1346 17.1473 52.6693 17.682L53.3213 18.334C53.856 18.8687 54.7229 18.8687 55.2576 18.334L60.9281 12.6635C61.4628 12.1288 61.4628 11.2619 60.9281 10.7273L60.2761 10.0752C59.7414 9.54056 58.8745 9.54056 58.3398 10.0752Z" fill="white" fill-opacity="0.5"/>
</g>
<defs>
<clipPath id="clip0_2504_275">
<rect width="71" height="71" fill="white"/>
</clipPath>
</defs>
</svg>
