<svg width="108" height="12" viewBox="0 0 108 12" fill="none" xmlns="http://www.w3.org/2000/svg">
<g clip-path="url(#clip0_2504_294)">
<path d="M11.332 6C11.332 9.3 8.78228 12 5.66599 12C2.54969 12 0 9.3 0 6C0 2.7 2.54969 0 5.66599 0C8.78228 0 11.332 2.7 11.332 6Z" fill="white" fill-opacity="0.5"/>
<path d="M37.8991 12C41.0284 12 43.5651 9.31371 43.5651 6C43.5651 2.68629 41.0284 0 37.8991 0C34.7699 0 32.2332 2.68629 32.2332 6C32.2332 9.31371 34.7699 12 37.8991 12Z" fill="white" fill-opacity="0.5"/>
<path d="M75.7668 6C75.7668 9.3 73.2171 12 70.1008 12C66.9845 12 64.4348 9.3 64.4348 6C64.4348 2.7 66.9845 0 70.1008 0C73.2171 0 75.7668 2.7 75.7668 6Z" fill="white" fill-opacity="0.5"/>
<path d="M108 6C108 9.3 105.45 12 102.334 12C99.2177 12 96.668 9.3 96.668 6C96.668 2.7 99.2177 0 102.334 0C105.45 0 108 2.7 108 6Z" fill="white" fill-opacity="0.5"/>
</g>
<defs>
<clipPath id="clip0_2504_294">
<rect width="108" height="12" fill="white"/>
</clipPath>
</defs>
</svg>
