<?xml version="1.0" encoding="UTF-8"?>
<svg xmlns="http://www.w3.org/2000/svg" version="1.1" viewBox="0 0 242.9 239.5">
  <defs>
    <style>
      .cls-1 {
        fill: #2c6b53;
      }
    </style>
  </defs>
  <!-- Generator: Adobe Illustrator 28.6.0, SVG Export Plug-In . SVG Version: 1.2.0 Build 709)  -->
  <g>
    <g id="Object">
      <path class="cls-1" d="M242,111.7c-.3-2.7-2-5.1-4.5-6.2-7.4-3.4-18.1-8.6-25.2-12.1,3.7-6.9,9.3-17.5,13.3-24.6,1.3-2.4,1.3-5.3,0-7.6-1.3-2.4-3.8-3.9-6.6-3.9l-38.3-1c-3.5,0-7.1-.2-10.8-.1-1.1-3.6-2.3-7-3.4-10.2h0l-12.8-36.1c-.9-2.6-3.1-4.5-5.8-5-2.7-.5-5.4.3-7.3,2.4-5.5,6-13.8,14.6-19.2,20.2-5.5-5.6-13.8-14.2-19.2-20.2-1.8-2-4.6-2.9-7.3-2.4-2.7.5-4.9,2.5-5.8,5l-12.8,36.1c-1.2,3.3-2.4,6.7-3.4,10.2-3.7,0-7.3,0-10.8.1h0l-38.3,1c-2.7,0-5.2,1.6-6.6,3.9-1.3,2.4-1.3,5.3,0,7.6,4,7.1,9.6,17.6,13.3,24.6-7,3.5-17.8,8.7-25.2,12.1-2.5,1.1-4.2,3.5-4.5,6.2-.3,2.7.8,5.4,3,7l30.4,23.3c2.7,2.1,5.6,4.3,8.7,6.4-1.2,3.5-2.2,7-3.2,10.3l-10.9,36.7c-.8,2.6-.1,5.4,1.7,7.4,1.8,2,4.6,2.9,7.3,2.4,8-1.6,19.7-3.7,27.5-5,1.1,7.8,2.8,19.6,3.7,27.7.3,2.7,2,5.1,4.5,6.2,1,.5,2.1.7,3.2.7,1.5,0,3.1-.5,4.4-1.4l31.5-21.7c2.9-2,5.8-4,8.8-6.3,3,2.2,6,4.3,8.8,6.3l31.5,21.7c1.3.9,2.9,1.4,4.4,1.4s2.2-.2,3.2-.7c2.5-1.1,4.2-3.5,4.5-6.2.9-8.1,2.6-19.9,3.7-27.7,7.7,1.3,19.5,3.4,27.5,5,2.7.5,5.4-.4,7.3-2.4,1.8-2,2.5-4.8,1.7-7.4l-10.9-36.7c-1-3.3-2-6.8-3.2-10.3,3-2.1,5.9-4.3,8.7-6.4l30.4-23.3c2.2-1.7,3.3-4.3,3-7ZM91,51.1l8.5-24.1c7.8,8.2,15.9,16.4,16.3,16.9,1.5,1.5,3.5,2.3,5.6,2.3s4.1-.8,5.6-2.3c.5-.5,8.5-8.7,16.3-16.9l8.5,24.1h0c.8,2.2,1.6,4.5,2.3,6.8-1.2.3-2.4.6-3.6.9-12.2,3.7-22.4,12.5-29.2,23.7-6.7-11.2-16.9-20-29.2-23.7-1.2-.4-2.4-.7-3.6-.9.7-2.3,1.5-4.5,2.3-6.8ZM157.9,75.8c.3,13.5-8.2,26.5-20.6,33.8-2.4.4-4.8.9-7.2,1.5-.1-2.5-.4-4.9-.8-7.3,3.1-14,12.9-26.1,25.8-30,.9-.3,1.7-.5,2.6-.7,0,.9.1,1.8.2,2.7ZM123.2,182.6c-.5.7-1.1,1.4-1.7,2.1-.6-.7-1.2-1.4-1.7-2.1-8.2-10.7-8.9-26.3-3.2-39.4,1.8-1.7,3.4-3.5,4.9-5.5,1.5,1.9,3.2,3.8,4.9,5.5,5.7,13.1,4.9,28.7-3.2,39.4ZM85.2,73c.9.2,1.8.4,2.6.7,12.9,3.9,22.7,16,25.8,30-.4,2.4-.7,4.9-.8,7.3-2.4-.7-4.8-1.2-7.2-1.5-12.3-7.3-20.9-20.3-20.6-33.8,0-.9,0-1.8.2-2.7ZM100.7,124.5c2.2,1.1,4.4,2.1,6.7,3-1.4,2.1-2.6,4.2-3.7,6.4-10.7,9.5-25.8,13.6-38.5,9.1-.8-.3-1.7-.6-2.5-1,.5-.8.9-1.6,1.5-2.3,7.7-11.1,22.2-16.6,36.5-15.2ZM135.4,127.5c2.3-.9,4.6-1.9,6.7-3,14.3-1.4,28.8,4.2,36.5,15.2.5.7,1,1.5,1.5,2.3-.8.4-1.7.7-2.5,1-12.7,4.4-27.8.4-38.5-9.1-1.1-2.2-2.3-4.3-3.7-6.4ZM43.8,129.7l-20.3-15.5c10.2-4.9,20.5-10,21.1-10.3,1.9-.9,3.3-2.6,3.9-4.6.6-2,.5-4.2-.5-6-.3-.6-5.7-10.8-11-20.8l25.5-.7h0c2.4,0,4.8-.1,7.1-.1-.1,1.2-.2,2.5-.2,3.7-.3,12.7,4.9,25.2,13.5,35-12.8,2.9-24.3,9.9-31.5,20.4-.7,1-1.4,2.1-2,3.1-1.9-1.4-3.8-2.9-5.7-4.3ZM82.8,213.4c-1.5-11.2-3.2-22.6-3.3-23.3-.3-2.1-1.4-3.9-3.1-5.2-1.3-1-2.9-1.5-4.6-1.5s-.9,0-1.3.1c-.7.1-12,2-23.2,4.1l7.3-24.5c.7-2.3,1.4-4.6,2.1-6.8,1.1.5,2.3.9,3.5,1.3,5,1.8,10.3,2.6,15.6,2.6,7.4,0,14.9-1.6,21.9-4.6-1.1,13,1.9,26.1,9.7,36.3.8,1,1.5,1.9,2.4,2.9-1.9,1.4-3.9,2.8-5.9,4.1l-21,14.5ZM188.3,163.2l7.3,24.5c-11.1-2-22.5-4-23.2-4.1-2.1-.4-4.2.1-5.9,1.4-1.7,1.2-2.8,3.1-3.1,5.2,0,.7-1.8,12.1-3.3,23.3l-21-14.5h0c-2-1.3-3.9-2.7-5.9-4.1.8-.9,1.6-1.9,2.4-2.9,7.7-10.2,10.8-23.3,9.7-36.3,7,3,14.5,4.6,21.9,4.6s10.6-.8,15.6-2.6c1.2-.4,2.3-.9,3.5-1.3.7,2.3,1.4,4.6,2.1,6.8ZM199.2,129.7s0,0,0,0c-1.9,1.4-3.8,2.9-5.7,4.3-.6-1.1-1.3-2.1-2-3.1-7.3-10.5-18.8-17.5-31.5-20.4,8.6-9.9,13.8-22.3,13.5-35,0-1.2-.1-2.5-.2-3.7,2.4,0,4.8,0,7.1.1l25.5.7c-5.4,10-10.7,20.2-11,20.8-1,1.9-1.2,4-.5,6,.6,2,2.1,3.6,3.9,4.6.6.3,10.9,5.4,21.1,10.3l-20.3,15.5Z"/>
    </g>
  </g>
</svg>